<svg width="200px" height="200px" viewBox="0 0 200 200" fill="none" xmlns="http://www.w3.org/2000/svg">
  <!-- 背景渐变 -->
  <defs>
    <linearGradient id="grad1" x1="0%" y1="0%" x2="100%" y2="100%">
      <stop offset="0%" style="stop-color:rgb(0,123,255);stop-opacity:1" />
      <stop offset="100%" style="stop-color:rgb(0,52,102);stop-opacity:1" />
    </linearGradient>
  </defs>
  <rect width="200" height="200" rx="35" fill="url(#grad1)"/>
  <!-- 添加版权图标 -->
  <g fill="#FFFFFF">
    <path d="M40,70h60c0,0,10,0,10,10v40c0,10-10,10-10,10H40c0,0-10,0-10-10V80C30,70,40,70,40,70z"/>
    <circle cx="160" cy="100" r="20"/>
    <path d="M160,120c-8.27,0-15-6.73-15-15s6.73-15,15-15s15,6.73,15,15S168.27,120,160,120z"/>
  </g>
  <!-- 版权所有者和年份 -->
  <text x="50%" y="180" dominant-baseline="middle" text-anchor="middle" fill="#FFFFFF" font-size="15px" font-family="Arial, sans-serif">
  </text>
</svg>